<svg xmlns="http://www.w3.org/2000/svg" width="32" height="32" viewBox="0 0 32 32">
    <g fill="none" fill-rule="nonzero">
        <ellipse cx="16" cy="15.789" fill="#007AB9" rx="16" ry="15.515"/>
        <path fill="#FFFFFF" d="M25.378 16.919v6.35h-3.797v-5.925c0-1.488-.549-2.504-1.923-2.504-1.05 0-1.673.684-1.948 1.347-.1.237-.126.565-.126.897v6.185h-3.797s.05-10.035 0-11.074h3.797v1.57c-.007.012-.018.024-.025.036h.025v-.037c.505-.753 1.405-1.83 3.423-1.83 2.498 0 4.371 1.584 4.371 4.985zM9.814 6.857c-1.299 0-2.149.826-2.149 1.913 0 1.063.825 1.914 2.1 1.914h.024c1.324 0 2.148-.851 2.148-1.914-.025-1.087-.824-1.913-2.123-1.913zM7.891 23.27h3.796V12.195H7.891V23.27z"/>
    </g>
</svg>
