<svg xmlns="http://www.w3.org/2000/svg" width="24" height="19" viewBox="0 0 24 19">
    <path fill="#FFF" fill-rule="evenodd" d="M24 2.25a10.01 10.01 0 0 1-2.827.754A4.83 4.83 0 0 0 23.338.351c-.952.55-2.005.949-3.129 1.163A4.973 4.973 0 0 0 16.616 0c-2.718 0-4.922 2.148-4.922 4.796 0 .376.042.741.126 1.093C7.728 5.689 4.1 3.78 1.67.876a4.696 4.696 0 0 0-.666 2.413c0 1.664.87 3.132 2.19 3.993a5.027 5.027 0 0 1-2.23-.599v.06c0 2.324 1.697 4.263 3.95 4.702a4.927 4.927 0 0 1-1.296.17c-.317 0-.627-.03-.927-.086.626 1.905 2.444 3.292 4.599 3.33a10.044 10.044 0 0 1-6.115 2.054c-.397 0-.79-.022-1.175-.066A14.23 14.23 0 0 0 7.548 19c9.058 0 14.01-7.308 14.01-13.647 0-.208-.005-.417-.013-.621A9.822 9.822 0 0 0 24 2.249"/>
</svg>
